<?xml version="1.0" standalone="no"?>
<!DOCTYPE svg PUBLIC "-//W3C//DTD SVG 20010904//EN"
 "http://www.w3.org/TR/2001/REC-SVG-20010904/DTD/svg10.dtd">
<svg version="1.0" xmlns="http://www.w3.org/2000/svg"
 width="512.000000pt" height="512.000000pt" viewBox="0 0 512.000000 512.000000"
 preserveAspectRatio="xMidYMid meet">

<g transform="translate(0.000000,512.000000) scale(0.100000,-0.100000)"
fill="#000000" stroke="none">
<path d="M852 5100 c-18 -11 -41 -34 -52 -52 -19 -31 -20 -51 -20 -398 0 -347
1 -367 20 -398 35 -57 72 -72 180 -72 108 0 145 15 180 72 19 31 20 51 20 398
0 347 -1 367 -20 398 -35 57 -72 72 -180 72 -77 0 -101 -4 -128 -20z"/>
<path d="M3052 5100 c-18 -11 -41 -34 -52 -52 -19 -31 -20 -51 -20 -398 0
-347 1 -367 20 -398 35 -57 72 -72 180 -72 108 0 145 15 180 72 19 31 20 51
20 398 0 347 -1 367 -20 398 -35 57 -72 72 -180 72 -77 0 -101 -4 -128 -20z"/>
<path d="M223 4641 c-72 -24 -127 -65 -163 -120 -64 -96 -61 7 -58 -1721 l3
-1575 26 -56 c33 -71 87 -125 158 -158 l56 -26 1028 -3 1029 -2 -6 27 c-12 59
-26 212 -26 291 l0 82 -857 0 c-842 0 -859 1 -903 21 -60 27 -98 64 -126 124
l-24 50 0 983 0 982 1720 0 1720 0 0 -368 0 -369 133 -7 c72 -4 153 -11 180
-15 l47 -8 -2 821 -3 821 -26 56 c-33 71 -87 125 -158 158 -52 24 -67 26 -223
29 l-168 4 0 -189 c0 -199 -10 -263 -49 -327 -24 -38 -96 -107 -132 -126 -47
-25 -126 -40 -219 -40 -153 0 -229 28 -308 114 -80 87 -92 135 -92 379 l0 187
-700 0 -700 0 0 -187 c0 -244 -12 -292 -92 -379 -79 -86 -155 -114 -308 -114
-93 0 -172 15 -219 40 -36 19 -108 88 -132 126 -39 64 -49 128 -49 327 l0 187
-152 0 c-121 -1 -164 -4 -205 -19z"/>
<path d="M1063 3250 c-94 -19 -178 -87 -222 -180 -37 -78 -37 -182 0 -260 118
-249 458 -246 575 4 33 72 33 180 0 252 -47 102 -126 163 -236 184 -59 11 -58
11 -117 0z"/>
<path d="M2010 3246 c-30 -6 -72 -22 -92 -34 -42 -26 -100 -88 -122 -129 -25
-50 -36 -137 -25 -200 13 -70 29 -102 76 -154 125 -138 341 -138 466 0 47 52
63 84 76 154 13 71 -1 155 -34 213 -26 45 -88 105 -132 128 -24 12 -135 38
-152 35 -3 0 -31 -6 -61 -13z"/>
<path d="M2972 3250 c-102 -21 -182 -86 -228 -184 -33 -72 -33 -180 0 -252 48
-103 127 -164 238 -184 137 -26 274 47 337 180 54 115 27 262 -65 354 -71 71
-185 105 -282 86z"/>
<path d="M3722 2470 c-563 -80 -995 -512 -1069 -1068 -50 -380 78 -763 347
-1033 433 -436 1122 -490 1613 -126 489 363 645 1013 371 1558 -166 332 -494
580 -864 654 -93 19 -314 27 -398 15z m327 -430 c67 -13 126 -35 200 -71 94
-47 117 -64 207 -153 89 -90 106 -113 153 -207 121 -244 121 -494 0 -738 -47
-94 -64 -117 -153 -207 -90 -89 -113 -106 -207 -153 -244 -121 -494 -121 -738
0 -94 47 -117 64 -207 153 -89 90 -106 113 -153 207 -121 244 -121 494 0 738
47 94 64 117 153 207 90 89 113 106 207 153 178 88 349 110 538 71z"/>
<path d="M3760 1580 l0 -220 -220 0 -220 0 0 -140 0 -140 360 0 360 0 0 360 0
360 -140 0 -140 0 0 -220z"/>
<path d="M1063 2290 c-94 -19 -178 -87 -222 -180 -37 -78 -37 -182 0 -260 118
-249 458 -246 575 4 33 72 33 180 0 252 -47 102 -126 163 -236 184 -59 11 -58
11 -117 0z"/>
<path d="M2010 2286 c-30 -6 -72 -22 -92 -34 -42 -26 -100 -88 -122 -129 -25
-50 -36 -137 -25 -200 13 -70 29 -102 76 -154 125 -138 341 -138 466 0 47 52
63 84 76 154 13 71 -1 155 -34 213 -26 45 -88 105 -132 128 -24 12 -135 38
-152 35 -3 0 -31 -6 -61 -13z"/>
</g>
</svg>
