<?xml version="1.0" standalone="no"?>
<!DOCTYPE svg PUBLIC "-//W3C//DTD SVG 20010904//EN"
 "http://www.w3.org/TR/2001/REC-SVG-20010904/DTD/svg10.dtd">
<svg version="1.0" xmlns="http://www.w3.org/2000/svg"
 width="512.000000pt" height="512.000000pt" viewBox="0 0 512.000000 512.000000"
 preserveAspectRatio="xMidYMid meet">

<g transform="translate(0.000000,512.000000) scale(0.100000,-0.100000)"
fill="#000000" stroke="none">
<path d="M1840 5110 c-490 -60 -897 -255 -1236 -594 -396 -397 -604 -902 -604
-1470 0 -155 21 -320 60 -471 101 -391 355 -852 723 -1313 311 -388 755 -839
1144 -1161 l123 -102 0 263 -1 263 -81 70 c-124 107 -510 494 -646 646 -511
579 -797 1066 -898 1530 -26 115 -26 442 -1 576 105 560 467 1018 978 1237
225 97 391 130 649 130 199 0 291 -12 455 -59 549 -159 980 -592 1135 -1140
84 -301 79 -678 -14 -945 -15 -42 2 -28 231 204 l246 250 -6 140 c-21 497
-219 958 -566 1318 -181 188 -341 308 -561 418 -197 98 -380 158 -600 195
-113 19 -424 28 -530 15z"/>
<path d="M1887 4005 c-305 -58 -553 -245 -687 -520 -72 -145 -94 -247 -94
-420 0 -113 5 -156 23 -225 89 -336 330 -584 666 -686 82 -25 105 -27 250 -28
125 0 174 4 225 18 196 54 329 131 460 265 102 105 170 215 216 348 45 132 58
224 51 363 -20 415 -309 766 -717 870 -111 28 -286 35 -393 15z m297 -405
c107 -27 169 -63 252 -145 220 -217 220 -551 0 -771 -220 -220 -554 -220 -771
0 -82 83 -118 145 -145 252 -49 190 3 378 145 519 141 142 329 194 519 145z"/>
<path d="M3570 1913 c-377 -388 -702 -728 -722 -755 -77 -102 -92 -150 -208
-659 -60 -266 -110 -487 -110 -490 0 -3 219 43 488 103 522 117 574 133 678
216 27 21 285 281 573 578 288 296 597 612 685 702 l161 162 -425 425 c-234
234 -427 425 -430 424 -3 0 -313 -318 -690 -706z m978 -144 c-2 -4 -246 -257
-543 -563 l-540 -555 -142 141 -142 142 62 66 c34 36 277 286 541 557 l478
492 144 -137 c79 -75 143 -140 142 -143z"/>
</g>
</svg>
