<?xml version="1.0" standalone="no"?>
<!DOCTYPE svg PUBLIC "-//W3C//DTD SVG 20010904//EN"
 "http://www.w3.org/TR/2001/REC-SVG-20010904/DTD/svg10.dtd">
<svg version="1.0" xmlns="http://www.w3.org/2000/svg"
 width="512.000000pt" height="512.000000pt" viewBox="0 0 512.000000 512.000000"
 preserveAspectRatio="xMidYMid meet">

<g transform="translate(0.000000,512.000000) scale(0.100000,-0.100000)"
fill="#000000" stroke="none">
<path d="M2923 4736 c-152 -29 -292 -93 -387 -178 l-57 -51 48 -26 c134 -74
242 -174 317 -294 208 -334 206 -870 -3 -1378 l-48 -116 50 -33 c118 -77 267
-108 388 -80 206 47 406 242 550 535 170 348 230 771 153 1075 -22 89 -85 220
-134 283 -92 118 -236 206 -400 247 -110 28 -369 36 -477 16z"/>
<path d="M1787 4414 c-393 -71 -605 -328 -633 -764 -20 -326 91 -742 274
-1022 103 -156 261 -294 400 -349 82 -33 252 -33 333 -1 291 115 545 506 641
986 19 93 23 143 22 311 0 184 -2 208 -26 297 -70 257 -234 435 -473 511 -142
46 -381 59 -538 31z"/>
<path d="M2679 2533 c-13 -20 -45 -63 -72 -96 -27 -32 -47 -61 -44 -63 3 -3
103 -59 223 -126 199 -109 358 -188 381 -188 17 0 535 296 616 353 l28 19
-123 71 c-138 78 -114 77 -224 8 -86 -54 -185 -83 -308 -89 -159 -7 -274 24
-396 107 l-59 40 -22 -36z"/>
<path d="M3760 2200 c-118 -72 -252 -152 -298 -177 l-83 -45 63 -22 c380 -134
625 -527 695 -1114 l17 -142 484 0 484 0 -5 228 c-3 172 -10 253 -26 337 -59
312 -164 538 -321 695 -88 89 -168 132 -378 205 -74 26 -189 71 -255 102 -67
30 -131 57 -142 59 -13 3 -96 -42 -235 -126z"/>
<path d="M1435 2174 c-60 -34 -116 -67 -124 -72 -11 -6 29 -34 145 -104 169
-101 418 -241 495 -278 l47 -23 128 73 c71 39 225 129 342 198 l212 127 -35
20 c-20 11 -76 44 -125 72 l-89 53 -38 -26 c-61 -42 -143 -80 -223 -105 -59
-19 -98 -24 -180 -24 -142 1 -250 34 -388 122 -29 18 -53 32 -55 32 -1 -1 -51
-30 -112 -65z"/>
<path d="M1050 1979 c-121 -57 -245 -108 -379 -153 -166 -57 -216 -84 -303
-165 -114 -106 -200 -245 -266 -431 -71 -202 -102 -403 -102 -662 l0 -188
1991 0 1991 0 -5 252 c-5 273 -19 367 -82 568 -79 248 -215 442 -382 543 -32
20 -124 58 -203 85 -80 27 -203 75 -275 107 -71 31 -142 62 -156 67 -23 10
-41 1 -180 -84 -337 -208 -667 -388 -710 -388 -46 0 -419 205 -713 392 -76 48
-143 88 -150 88 -6 0 -40 -14 -76 -31z"/>
</g>
</svg>
