<?xml version="1.0" standalone="no"?>
<!DOCTYPE svg PUBLIC "-//W3C//DTD SVG 20010904//EN"
 "http://www.w3.org/TR/2001/REC-SVG-20010904/DTD/svg10.dtd">
<svg version="1.0" xmlns="http://www.w3.org/2000/svg"
 width="512.000000pt" height="512.000000pt" viewBox="0 0 512.000000 512.000000"
 preserveAspectRatio="xMidYMid meet">

<g transform="translate(0.000000,512.000000) scale(0.100000,-0.100000)"
fill="#000000" stroke="none">
<path d="M1005 5104 c-202 -43 -381 -188 -471 -379 -68 -147 -64 -17 -64
-2165 0 -2148 -4 -2018 64 -2165 69 -147 174 -253 321 -325 152 -74 63 -70
1705 -70 1628 0 1550 -3 1695 64 175 82 299 222 363 411 l27 80 3 1370 c2 999
0 1381 -8 1410 -10 34 -136 165 -863 893 -574 575 -865 859 -893 872 -39 19
-64 20 -925 19 -740 0 -895 -3 -954 -15z m1585 -1133 c0 -538 3 -747 12 -772
18 -54 48 -87 102 -114 l50 -25 743 0 743 0 -2 -1222 -3 -1223 -23 -47 c-27
-54 -87 -112 -141 -136 -33 -16 -161 -17 -1511 -17 -1350 0 -1478 1 -1511 17
-54 24 -114 82 -141 136 l-23 47 0 1940 c0 2097 -3 1967 52 2042 35 47 88 85
141 99 36 10 224 13 780 13 l732 1 0 -739z m885 -31 l470 -470 -473 0 -472 0
0 470 c0 259 1 470 3 470 1 0 214 -211 472 -470z"/>
</g>
</svg>
