<?xml version="1.0" standalone="no"?>
<!DOCTYPE svg PUBLIC "-//W3C//DTD SVG 20010904//EN"
 "http://www.w3.org/TR/2001/REC-SVG-20010904/DTD/svg10.dtd">
<svg version="1.0" xmlns="http://www.w3.org/2000/svg"
 width="512.000000pt" height="512.000000pt" viewBox="0 0 512.000000 512.000000"
 preserveAspectRatio="xMidYMid meet">

<g transform="translate(0.000000,512.000000) scale(0.100000,-0.100000)"
fill="#000000" stroke="none">
<path d="M4224 4858 l-261 -263 -17 -100 c-10 -55 -22 -121 -28 -148 l-10 -47
-41 31 c-257 194 -588 350 -897 423 -200 48 -318 60 -560 60 -253 0 -376 -14
-595 -69 -676 -170 -1256 -641 -1565 -1270 -85 -173 -132 -300 -175 -470 -55
-219 -69 -342 -69 -595 0 -253 14 -376 69 -595 192 -760 764 -1395 1507 -1669
124 -46 340 -100 488 -123 162 -25 519 -24 685 1 530 80 1008 324 1376 702
193 199 323 382 439 619 117 238 186 458 226 720 25 167 26 522 0 690 -22 149
-73 352 -121 481 -74 201 -215 459 -344 631 l-31 41 47 10 c27 6 93 18 148 28
l100 17 263 261 262 261 -318 318 -317 317 -261 -262z m366 -273 l105 -105
-118 -118 -117 -117 -125 -24 c-70 -13 -129 -21 -132 -18 -3 4 5 61 17 129
l23 123 116 118 c64 64 118 117 121 117 3 0 52 -47 110 -105z m-1859 -89 c363
-58 712 -212 997 -440 l63 -50 -188 -188 c-163 -163 -190 -186 -204 -175 -246
179 -439 268 -692 319 -151 30 -423 32 -572 4 -648 -121 -1137 -601 -1276
-1256 -33 -152 -33 -448 0 -600 91 -430 325 -780 676 -1012 178 -118 357 -193
575 -239 152 -33 448 -33 600 0 654 139 1135 628 1256 1276 28 149 26 421 -4
572 -51 253 -140 446 -319 692 -11 14 12 41 175 204 l188 188 50 -63 c546
-681 615 -1641 172 -2385 -288 -484 -753 -836 -1283 -973 -201 -52 -310 -65
-540 -64 -276 0 -467 33 -710 120 -713 257 -1231 879 -1366 1639 -33 187 -33
503 0 690 167 944 917 1651 1861 1754 115 13 423 5 541 -13z m-51 -835 c164
-38 313 -102 449 -194 l74 -49 -189 -189 -189 -189 -78 39 c-114 57 -199 76
-342 76 -184 -1 -324 -49 -461 -159 -218 -175 -324 -459 -270 -726 84 -413
478 -677 884 -594 485 99 743 630 521 1072 l-39 77 189 189 189 189 49 -74
c94 -140 162 -299 199 -469 26 -118 26 -380 0 -500 -56 -259 -167 -463 -355
-651 -188 -188 -391 -299 -651 -355 -126 -27 -392 -25 -516 4 -260 61 -452
168 -635 351 -188 189 -299 392 -355 651 -26 119 -26 381 0 500 56 259 167
462 355 651 210 211 441 325 756 373 71 11 332 -4 415 -23z m-122 -826 l44
-18 -148 -148 -149 -149 108 -107 107 -108 149 149 148 148 18 -44 c9 -23 19
-77 22 -118 29 -413 -469 -638 -763 -345 -173 173 -179 438 -14 617 57 63 134
111 210 133 70 19 208 14 268 -10z"/>
</g>
</svg>
